<svg width="18" height="28" viewBox="0 0 104 159" fill="none" xmlns="http://www.w3.org/2000/svg">
<path d="M103 0.999985H1L9.44586 14H94.5541L103 0.999985Z" stroke="white" fill="white"/>
<path d="M103 158H1L9.44586 145H94.5541L103 158Z" stroke="white" fill="white"/>
<path d="M10.0656 144C10.0656 144 3.16796 118.718 10.0656 104.698C16.445 91.7311 39 79.5039 39 79.5039C39 79.5039 16.1991 65.9607 10.0656 52.2946C3.84766 38.4401 10.0656 14 10.0656 14" stroke="white" stroke-width="4"/>
<path d="M92.2218 144C92.2218 144 98.4728 118.718 92.2218 104.698C86.4405 91.7311 66 79.5039 66 79.5039C66 79.5039 86.6634 65.9607 92.2218 52.2946C97.8568 38.4401 92.2218 14 92.2218 14" stroke="white" stroke-width="4"/>
<path d="M7 114C7 114 47.2353 105 51.4706 114C55.7059 123 97 114 97 114" stroke="white" fill="white"/>
<path d="M10 52C10 52 48 43 52 52C56 61 95 52 95 52" stroke="white" fill="white"/>
</svg>
