<svg xmlns="http://www.w3.org/2000/svg" width="24" height="24" viewBox="0 0 24 24"><path fill="none" d="M0,0H24V24H0Z" data-name="Path 3693"/><path fill="#f1f1f1" d="M-1926.259,18.478l-3.5-4.681h-3.44A1.8,1.8,0,0,1-1935,12V7.2a1.8,1.8,0,0,1,1.8-1.8h3.44l3.5-4.681A1.745,1.745,0,0,1-1924.842,0a1.786,1.786,0,0,1,1.81,1.8V17.4a1.786,1.786,0,0,1-1.81,1.8A1.745,1.745,0,0,1-1926.259,18.478Zm-3.5-6.481h.9l.54.722,3.488,4.662V1.819l-3.488,4.662-.54.722h-4.341V12h3.439Z" data-name="Path 3610" transform="translate(1941 2.4)"/></svg>