<svg xmlns="http://www.w3.org/2000/svg" width="24" height="24" data-name="Speaker Mute" viewBox="0 0 24 24"><path fill="none" d="M0,0H24V24H0Z" data-name="Path 3692"/><path fill="#f1f1f1" d="M1.8,1.329a.9.9,0,0,0-1.273,0h0a.9.9,0,0,0,0,1.273l2.8,2.8H1.811a1.8,1.8,0,0,0-1.8,1.8V12a1.8,1.8,0,0,0,1.8,1.8h3.44l3.5,4.681a1.744,1.744,0,0,0,1.417.722,1.786,1.786,0,0,0,1.81-1.8V14.059l4.877,4.877a.9.9,0,0,0,1.273-1.273ZM10.18,17.381,6.692,12.719,6.152,12H1.812V7.2H5.123l5.057,5.057Zm4.7-5.515L13.808,10.8V7.354a.481.481,0,0,1,.851-.3,3.886,3.886,0,0,1,.215,4.816ZM13.9,3.525a.9.9,0,0,1,1.2-.427,7.179,7.179,0,0,1,2.288,11.275L16.11,13.1a5.385,5.385,0,0,0-1.788-8.377A.9.9,0,0,1,13.9,3.525ZM7.89,4.88,6.6,3.594,8.753.722A1.744,1.744,0,0,1,10.17,0a1.786,1.786,0,0,1,1.81,1.8V8.971l-1.8-1.8V1.819Z" data-name="Path 3612" transform="translate(2.388 2.4)"/></svg>